<svg width="1440" height="1412" viewBox="0 0 1440 1412" fill="none" xmlns="http://www.w3.org/2000/svg">
<line x1="0.5" y1="2.18557e-08" x2="0.499955" y2="1029" stroke="#735200" stroke-opacity="0.03"/>
<line x1="24.5" y1="2.18557e-08" x2="24.5" y2="1029" stroke="#735200" stroke-opacity="0.03"/>
<line x1="48.5" y1="2.18557e-08" x2="48.5" y2="1029" stroke="#735200" stroke-opacity="0.03"/>
<line x1="72.5" y1="2.18557e-08" x2="72.5" y2="1029" stroke="#735200" stroke-opacity="0.03"/>
<line x1="96.5" y1="2.18557e-08" x2="96.5" y2="1029" stroke="#735200" stroke-opacity="0.03"/>
<line x1="120.5" y1="2.18557e-08" x2="120.5" y2="1029" stroke="#735200" stroke-opacity="0.03"/>
<line x1="144.5" y1="2.18557e-08" x2="144.5" y2="1029" stroke="#735200" stroke-opacity="0.03"/>
<line x1="168.5" y1="2.18557e-08" x2="168.5" y2="1029" stroke="#735200" stroke-opacity="0.03"/>
<line x1="192.5" y1="2.18557e-08" x2="192.5" y2="1029" stroke="#735200" stroke-opacity="0.03"/>
<line x1="216.5" y1="2.18557e-08" x2="216.5" y2="1029" stroke="#735200" stroke-opacity="0.03"/>
<line x1="240.5" y1="2.18557e-08" x2="240.5" y2="1029" stroke="#735200" stroke-opacity="0.03"/>
<line x1="264.5" y1="2.18557e-08" x2="264.5" y2="1029" stroke="#735200" stroke-opacity="0.03"/>
<line x1="288.5" y1="2.18557e-08" x2="288.5" y2="1029" stroke="#735200" stroke-opacity="0.03"/>
<line x1="312.5" y1="2.18557e-08" x2="312.5" y2="1029" stroke="#735200" stroke-opacity="0.03"/>
<line x1="336.5" y1="2.18557e-08" x2="336.5" y2="1029" stroke="#735200" stroke-opacity="0.03"/>
<line x1="360.5" y1="2.18557e-08" x2="360.5" y2="1029" stroke="#735200" stroke-opacity="0.03"/>
<line x1="384.5" y1="2.18557e-08" x2="384.5" y2="1029" stroke="#735200" stroke-opacity="0.03"/>
<line x1="408.5" y1="2.18557e-08" x2="408.5" y2="1029" stroke="#735200" stroke-opacity="0.03"/>
<line x1="432.5" y1="2.18557e-08" x2="432.5" y2="1029" stroke="#735200" stroke-opacity="0.03"/>
<line x1="456.5" y1="2.18557e-08" x2="456.5" y2="1029" stroke="#735200" stroke-opacity="0.03"/>
<line x1="480.5" y1="2.18557e-08" x2="480.5" y2="1029" stroke="#735200" stroke-opacity="0.03"/>
<line x1="504.5" y1="2.18557e-08" x2="504.5" y2="1029" stroke="#735200" stroke-opacity="0.03"/>
<line x1="528.5" y1="2.18557e-08" x2="528.5" y2="1029" stroke="#735200" stroke-opacity="0.03"/>
<line x1="552.5" y1="2.18557e-08" x2="552.5" y2="1029" stroke="#735200" stroke-opacity="0.03"/>
<line x1="576.5" y1="2.18557e-08" x2="576.5" y2="1029" stroke="#735200" stroke-opacity="0.03"/>
<line x1="600.5" y1="2.18557e-08" x2="600.5" y2="1029" stroke="#735200" stroke-opacity="0.03"/>
<line x1="624.5" y1="2.18557e-08" x2="624.5" y2="1029" stroke="#735200" stroke-opacity="0.03"/>
<line x1="648.5" y1="2.18557e-08" x2="648.5" y2="1029" stroke="#735200" stroke-opacity="0.03"/>
<line x1="672.5" y1="2.18557e-08" x2="672.5" y2="1029" stroke="#735200" stroke-opacity="0.03"/>
<line x1="696.5" y1="2.18557e-08" x2="696.5" y2="1029" stroke="#735200" stroke-opacity="0.03"/>
<line x1="720.5" y1="2.18557e-08" x2="720.5" y2="1029" stroke="#735200" stroke-opacity="0.03"/>
<line x1="744.5" y1="2.18557e-08" x2="744.5" y2="1029" stroke="#735200" stroke-opacity="0.03"/>
<line x1="768.5" y1="2.18557e-08" x2="768.5" y2="1029" stroke="#735200" stroke-opacity="0.03"/>
<line x1="792.5" y1="2.18557e-08" x2="792.5" y2="1029" stroke="#735200" stroke-opacity="0.03"/>
<line x1="816.5" y1="2.18557e-08" x2="816.5" y2="1029" stroke="#735200" stroke-opacity="0.03"/>
<line x1="840.5" y1="2.18557e-08" x2="840.5" y2="1029" stroke="#735200" stroke-opacity="0.03"/>
<line x1="864.5" y1="2.18557e-08" x2="864.5" y2="1029" stroke="#735200" stroke-opacity="0.03"/>
<line x1="888.5" y1="2.18557e-08" x2="888.5" y2="1029" stroke="#735200" stroke-opacity="0.03"/>
<line x1="912.5" y1="2.18557e-08" x2="912.5" y2="1029" stroke="#735200" stroke-opacity="0.03"/>
<line x1="936.5" y1="2.18557e-08" x2="936.5" y2="1029" stroke="#735200" stroke-opacity="0.03"/>
<line x1="960.5" y1="2.18557e-08" x2="960.5" y2="1029" stroke="#735200" stroke-opacity="0.03"/>
<line x1="984.5" y1="2.18557e-08" x2="984.5" y2="1029" stroke="#735200" stroke-opacity="0.03"/>
<line x1="1008.5" y1="2.18557e-08" x2="1008.5" y2="1029" stroke="#735200" stroke-opacity="0.03"/>
<line x1="1032.5" y1="2.18557e-08" x2="1032.5" y2="1029" stroke="#735200" stroke-opacity="0.03"/>
<line x1="1056.5" y1="2.18557e-08" x2="1056.5" y2="1029" stroke="#735200" stroke-opacity="0.03"/>
<line x1="1080.5" y1="2.18557e-08" x2="1080.5" y2="1029" stroke="#735200" stroke-opacity="0.03"/>
<line x1="1104.5" y1="2.18557e-08" x2="1104.5" y2="1029" stroke="#735200" stroke-opacity="0.03"/>
<line x1="1128.5" y1="2.18557e-08" x2="1128.5" y2="1029" stroke="#735200" stroke-opacity="0.03"/>
<line x1="1152.5" y1="2.18557e-08" x2="1152.5" y2="1029" stroke="#735200" stroke-opacity="0.03"/>
<line x1="1176.5" y1="2.18557e-08" x2="1176.5" y2="1029" stroke="#735200" stroke-opacity="0.03"/>
<line x1="1200.5" y1="2.18557e-08" x2="1200.5" y2="1029" stroke="#735200" stroke-opacity="0.03"/>
<line x1="1224.5" y1="2.18557e-08" x2="1224.5" y2="1029" stroke="#735200" stroke-opacity="0.03"/>
<line x1="1248.5" y1="2.18557e-08" x2="1248.5" y2="1029" stroke="#735200" stroke-opacity="0.03"/>
<line x1="1272.5" y1="2.18557e-08" x2="1272.5" y2="1029" stroke="#735200" stroke-opacity="0.03"/>
<line x1="1296.5" y1="2.18557e-08" x2="1296.5" y2="1029" stroke="#735200" stroke-opacity="0.03"/>
<line x1="1320.5" y1="2.18557e-08" x2="1320.5" y2="1029" stroke="#735200" stroke-opacity="0.03"/>
<line x1="1344.5" y1="2.18557e-08" x2="1344.5" y2="1029" stroke="#735200" stroke-opacity="0.03"/>
<line x1="1368.5" y1="2.18557e-08" x2="1368.5" y2="1029" stroke="#735200" stroke-opacity="0.03"/>
<line x1="1392.5" y1="2.18557e-08" x2="1392.5" y2="1029" stroke="#735200" stroke-opacity="0.03"/>
<line x1="1416.5" y1="2.18557e-08" x2="1416.5" y2="1029" stroke="#735200" stroke-opacity="0.03"/>
<line x1="10" y1="1401.51" x2="29029.8" y2="1401.51" stroke="#735200" stroke-opacity="0.03"/>
<line x1="10" y1="1377.51" x2="29029.8" y2="1377.51" stroke="#735200" stroke-opacity="0.03"/>
<line x1="10" y1="1353.51" x2="29029.8" y2="1353.51" stroke="#735200" stroke-opacity="0.03"/>
<line x1="10" y1="1329.51" x2="29029.8" y2="1329.51" stroke="#735200" stroke-opacity="0.03"/>
<line x1="10" y1="1305.51" x2="29029.8" y2="1305.51" stroke="#735200" stroke-opacity="0.03"/>
<line x1="10" y1="1281.51" x2="29029.8" y2="1281.51" stroke="#735200" stroke-opacity="0.03"/>
<line x1="10" y1="1257.51" x2="29029.8" y2="1257.51" stroke="#735200" stroke-opacity="0.03"/>
<line x1="10" y1="1233.51" x2="29029.8" y2="1233.51" stroke="#735200" stroke-opacity="0.03"/>
<line x1="10" y1="1209.51" x2="29029.8" y2="1209.51" stroke="#735200" stroke-opacity="0.03"/>
<line x1="10" y1="1185.51" x2="29029.8" y2="1185.51" stroke="#735200" stroke-opacity="0.03"/>
<line x1="10" y1="1161.51" x2="29029.8" y2="1161.51" stroke="#735200" stroke-opacity="0.03"/>
<line x1="10" y1="1137.51" x2="29029.8" y2="1137.51" stroke="#735200" stroke-opacity="0.03"/>
<line x1="10" y1="1113.51" x2="29029.8" y2="1113.51" stroke="#735200" stroke-opacity="0.03"/>
<line x1="10" y1="1089.51" x2="29029.8" y2="1089.51" stroke="#735200" stroke-opacity="0.03"/>
<line x1="10" y1="1065.51" x2="29029.8" y2="1065.51" stroke="#735200" stroke-opacity="0.03"/>
<line x1="10" y1="1041.51" x2="29029.8" y2="1041.51" stroke="#735200" stroke-opacity="0.03"/>
<line x1="10" y1="1017.51" x2="29029.8" y2="1017.51" stroke="#735200" stroke-opacity="0.03"/>
<line x1="10" y1="993.507" x2="29029.8" y2="993.507" stroke="#735200" stroke-opacity="0.03"/>
<line x1="10" y1="969.507" x2="29029.8" y2="969.507" stroke="#735200" stroke-opacity="0.03"/>
<line x1="10" y1="945.507" x2="29029.8" y2="945.507" stroke="#735200" stroke-opacity="0.03"/>
<line x1="10" y1="921.507" x2="29029.8" y2="921.507" stroke="#735200" stroke-opacity="0.03"/>
<line x1="10" y1="897.507" x2="29029.8" y2="897.507" stroke="#735200" stroke-opacity="0.03"/>
<line x1="10" y1="873.507" x2="29029.8" y2="873.507" stroke="#735200" stroke-opacity="0.03"/>
<line x1="10" y1="849.507" x2="29029.8" y2="849.507" stroke="#735200" stroke-opacity="0.03"/>
<line x1="10" y1="825.507" x2="29029.8" y2="825.507" stroke="#735200" stroke-opacity="0.03"/>
<line x1="10" y1="801.507" x2="29029.8" y2="801.507" stroke="#735200" stroke-opacity="0.03"/>
<line x1="10" y1="777.507" x2="29029.8" y2="777.507" stroke="#735200" stroke-opacity="0.03"/>
<line x1="10" y1="753.507" x2="29029.8" y2="753.507" stroke="#735200" stroke-opacity="0.03"/>
<line x1="10" y1="729.507" x2="29029.8" y2="729.507" stroke="#735200" stroke-opacity="0.03"/>
<line x1="10" y1="705.507" x2="29029.8" y2="705.507" stroke="#735200" stroke-opacity="0.03"/>
<line x1="10" y1="681.507" x2="29029.8" y2="681.507" stroke="#735200" stroke-opacity="0.03"/>
<line x1="10" y1="657.507" x2="29029.8" y2="657.507" stroke="#735200" stroke-opacity="0.03"/>
<line x1="10" y1="633.506" x2="29029.8" y2="633.507" stroke="#735200" stroke-opacity="0.03"/>
<line x1="10" y1="609.506" x2="29029.8" y2="609.506" stroke="#735200" stroke-opacity="0.03"/>
<line x1="10" y1="585.506" x2="29029.8" y2="585.506" stroke="#735200" stroke-opacity="0.03"/>
<line x1="10" y1="561.506" x2="29029.8" y2="561.506" stroke="#735200" stroke-opacity="0.03"/>
<line x1="10" y1="537.506" x2="29029.8" y2="537.506" stroke="#735200" stroke-opacity="0.03"/>
<line x1="10" y1="513.506" x2="29029.8" y2="513.506" stroke="#735200" stroke-opacity="0.03"/>
<line x1="10" y1="489.506" x2="29029.8" y2="489.506" stroke="#735200" stroke-opacity="0.03"/>
<line x1="10" y1="465.505" x2="29029.8" y2="465.506" stroke="#735200" stroke-opacity="0.03"/>
<line x1="10" y1="441.505" x2="29029.8" y2="441.505" stroke="#735200" stroke-opacity="0.03"/>
<line x1="10" y1="417.505" x2="29029.8" y2="417.505" stroke="#735200" stroke-opacity="0.03"/>
<line x1="10" y1="393.505" x2="29029.8" y2="393.505" stroke="#735200" stroke-opacity="0.03"/>
<line x1="10" y1="369.505" x2="29029.8" y2="369.505" stroke="#735200" stroke-opacity="0.03"/>
<line x1="10" y1="345.505" x2="29029.8" y2="345.505" stroke="#735200" stroke-opacity="0.03"/>
<line x1="10" y1="321.504" x2="29029.8" y2="321.505" stroke="#735200" stroke-opacity="0.03"/>
<line x1="10" y1="297.503" x2="29029.8" y2="297.504" stroke="#735200" stroke-opacity="0.03"/>
<line x1="10" y1="273.503" x2="29029.8" y2="273.503" stroke="#735200" stroke-opacity="0.03"/>
<line x1="10" y1="249.503" x2="29029.8" y2="249.503" stroke="#735200" stroke-opacity="0.03"/>
<line x1="10" y1="225.503" x2="29029.8" y2="225.503" stroke="#735200" stroke-opacity="0.03"/>
<line x1="10" y1="201.503" x2="29029.8" y2="201.503" stroke="#735200" stroke-opacity="0.03"/>
<line x1="10" y1="177.503" x2="29029.8" y2="177.503" stroke="#735200" stroke-opacity="0.03"/>
<line x1="10" y1="153.501" x2="29029.8" y2="153.503" stroke="#735200" stroke-opacity="0.03"/>
<line x1="10" y1="129.5" x2="29029.8" y2="129.501" stroke="#735200" stroke-opacity="0.03"/>
<line x1="10" y1="105.5" x2="29029.8" y2="105.5" stroke="#735200" stroke-opacity="0.03"/>
<line x1="10" y1="81.5002" x2="29029.8" y2="81.5002" stroke="#735200" stroke-opacity="0.03"/>
<line x1="10" y1="57.5002" x2="29029.8" y2="57.5002" stroke="#735200" stroke-opacity="0.03"/>
<line x1="10" y1="33.5002" x2="29029.8" y2="33.5002" stroke="#735200" stroke-opacity="0.03"/>
<line x1="10" y1="9.50024" x2="29029.8" y2="9.50018" stroke="#735200" stroke-opacity="0.03"/>
</svg>
